# xmcd
#
# Track frame offsets:
#	150
#	15680
#	27282
#	43928
#	59905
#	75165
#	93982
#	113600
#	127788
#	140226
#	154893
#	170368
#	182667
#	201812
#	213302
#	233291
#	244280
#	263824
#	279020
#	293827
#	313426
#
# Disc length: 4333
#
# Revision: 1
# Processed by: cddbd v1.5.1PL0 Copyright (c) Steve Scherf et al.
# Submitted via: FreeRIP 2.70 
# Normalized: r0:TDELIM( - )
#
DISCID=2510eb15
DTITLE=Boot Scootin' 5
DYEAR=1998
DGENRE=Country
TTITLE0=Carlene Carter - I Love You Cause I Want To
TTITLE1=Alan Jackson - Little Bitty
TTITLE2=Garth Brooks - Friends In Low Places
TTITLE3=Tracy Lawrence - I See It Now
TTITLE4=Waylon Jennings - Luckenbach, Texas (Back to the Basics of Love)
TTITLE5=Shania Twain - Any Man of Mine
TTITLE6=Restless Heart - I'll Still Be Loving You
TTITLE7=Perfect Stranger - Fire When Ready
TTITLE8=Clint Black - Killin' Time
TTITLE9=Reba McEntire - Take It Back
TTITLE10=John Berry - Your Love Amazes Me (edit)
TTITLE11=Patsy Cline - Crazy
TTITLE12=Lonestar - No News (Dance Mix)
TTITLE13=Marty Stuart - Hillbilly Rock
TTITLE14=Gibson Miller Band - Texas Tattoo (Extended Version)
TTITLE15=Mel McDaniel - Stand Up
TTITLE16=Pam Tillis - Cleopatra, Queen of Denial (Club Mix)
TTITLE17=Billy Ray Cyrus - Achy Breaky Heart
TTITLE18=Sammy Kershaw - Third Rate Romance
TTITLE19=Mary-Chapin Carpenter - Down At the Twist and Shout (Dance Mix)
TTITLE20=George Strait - The Fireman
EXTD=
EXTT0=
EXTT1=
EXTT2=
EXTT3=
EXTT4=
EXTT5=
EXTT6=
EXTT7=
EXTT8=
EXTT9=
EXTT10=
EXTT11=
EXTT12=
EXTT13=
EXTT14=
EXTT15=
EXTT16=
EXTT17=
EXTT18=
EXTT19=
EXTT20=
PLAYORDER=
